<svg width="24" height="24" viewBox="0 0 24 24" fill="none" xmlns="http://www.w3.org/2000/svg">
  <rect width="24" height="24" rx="4" fill="#334F75"/>
  <path d="M12 6.25C9.93 6.25 8.25 7.93 8.25 10C8.25 11.29 8.95 12.43 10 13.1V14.25C10 14.66 10.34 15 10.75 15H13.25C13.66 15 14 14.66 14 14.25V13.1C15.05 12.43 15.75 11.29 15.75 10C15.75 7.93 14.07 6.25 12 6.25ZM13 13.75H11V12.75H13V13.75ZM13.68 11.54L13.12 11.79C12.81 11.93 12.5 12.24 12.5 12.67V12H11.5V12.67C11.5 12.24 11.19 11.93 10.88 11.79L10.32 11.54C9.77 11.31 9.5 10.8 9.5 10.23C9.5 9.05 10.33 8.14 11.37 8.02C12.43 7.89 13.5 8.69 13.5 9.75C13.5 10.5 13.33 10.95 13.68 11.54Z" fill="#3182FF"/>
  <path d="M19 15V16C19 17.1 18.1 18 17 18H7C5.9 18 5 17.1 5 16V15H6V16C6 16.55 6.45 17 7 17H17C17.55 17 18 16.55 18 16V15H19Z" fill="white"/>
</svg>